<svg width="140" height="42" viewBox="0 0 140 42" fill="none" xmlns="http://www.w3.org/2000/svg">
  <path d="M37.1 21.782c0 9.6-7.765 17.384-17.341 17.384S2.418 31.382 2.418 21.782 10.183 4.398 19.759 4.398 37.1 12.182 37.1 21.782z" stroke="#00cc88" stroke-width="4"/>
  <path d="M21.355 30.218h-3.192l-6.43-6.486v6.486H8.54V13.346h3.193v6.151l6.151-6.151h3.136l-6.43 6.43 6.765 10.442zm8.27-13.7c-1.736 0-2.93 1.28-3.08 3.192h6.152c-.084-1.92-1.277-3.193-3.072-3.193zm6.207 5.314H26.538c.15 1.92 1.344 3.248 3.192 3.248 1.511 0 2.568-.717 2.847-1.68h3.136c-.503 2.511-2.903 4.15-6.04 4.15-3.92 0-6.43-2.595-6.43-6.711 0-4.117 2.51-6.712 6.375-6.712 3.864 0 6.319 2.54 6.319 6.598-.001.39-.028.743-.103 1.107zM49.57 22.22c0-5.146 3.416-8.564 8.62-8.564 4.397 0 7.653 2.567 8.1 6.43h-3.192c-.447-2.231-2.175-3.418-4.908-3.418-3.192 0-5.341 2.203-5.341 5.563 0 3.36 2.149 5.536 5.341 5.536 2.733 0 4.46-1.187 4.908-3.416h3.192c-.447 3.864-3.703 6.43-8.1 6.43-5.204-.01-8.62-3.428-8.62-8.56zm27.474 8.228c-4.52 0-7.542-3.136-7.542-7.765V13.346h3.193v9.17c0 2.903 1.623 4.908 4.35 4.908 2.735 0 4.35-2.006 4.35-4.907v-9.171h3.193v9.336c0 4.63-3.023 7.766-7.545 7.766zm19.486-15.767c4.201 0 6.767 2.51 6.767 5.788 0 2.679-1.511 4.516-4.35 5.12l4.685 4.85h-4.15l-4.069-4.35h-1.847v4.35h-3.192V14.68h6.156v.001zm-.335 8.397c2.287 0 3.808-1.194 3.808-2.958 0-1.762-1.52-2.93-3.808-2.93h-2.63v5.889h2.63zm14.185 7.13h-3.192V14.681h3.192v15.066zm4.069-7.569c0-4.85 3.22-7.932 8.128-7.932 4.907 0 8.127 3.08 8.127 7.932 0 4.85-3.22 7.93-8.127 7.93-4.909 0-8.128-3.08-8.128-7.93zm13.027 0c0-3.024-1.92-4.962-4.899-4.962-2.98 0-4.907 1.938-4.907 4.962 0 3.023 1.928 4.962 4.907 4.962 2.98 0 4.899-1.94 4.899-4.962z" fill="#00cc88"/>
</svg>
